# xmcd
#
# Track frame offsets: 
#        150
#        9665
#        25011
#        38710
#        49808
#        63073
#        76229
#        89263
#        101417
#        112491
#        124238
#        141640
#        150762
#        158682
#        173669
#        186478
#        197968
#        210742
#        222503
#        233970
#        245193
#        255655
#        267033
#        285755
#        296434
#        312639
#        314948
#        317931
#        326664
#
# Disc length: 4412 seconds
#
# Revision: 0
# Processed by: cddbd v1.5.2PL0 Copyright (c) Steve Scherf et al.
# Submitted via: ExactAudioCopy v0.95b4
#
DISCID=b3113a1d
DTITLE=The Beatles  - City Of Light [CD2]
DYEAR=1900
DGENRE=
TTITLE0=Twist And Shout
TTITLE1=She's A Woman
TTITLE2=I'm A Loser
TTITLE3=Can't Buy Me Love
TTITLE4=Baby's In Black
TTITLE5=I Wanna Be Your Man
TTITLE6=A Hard Day's Night
TTITLE7=Everybody's Trying To Be My Baby
TTITLE8=Rock And Roll Music
TTITLE9=I Feel Fine
TTITLE10=Ticket To Ride
TTITLE11=Long Tall Sally
TTITLE12=Twist And Shout
TTITLE13=She's A Woman
TTITLE14=I'm A Loser
TTITLE15=Can't Buy Me Love
TTITLE16=Baby's In Black
TTITLE17=I Wanna Be Your Man
TTITLE18=A Hard Day's Night
TTITLE19=Everybody's Trying To Be My Baby
TTITLE20=Rock And Roll Music
TTITLE21=I Feel Fine
TTITLE22=Ticket To Ride
TTITLE23=Long Tall Sally
TTITLE24=Interview
TTITLE25=Interview
TTITLE26=Interview
TTITLE27=Interview
TTITLE28=All You Need Is Love
EXTD=
EXTT0=
EXTT1=
EXTT2=
EXTT3=
EXTT4=
EXTT5=
EXTT6=
EXTT7=
EXTT8=
EXTT9=
EXTT10=
EXTT11=
EXTT12=
EXTT13=
EXTT14=
EXTT15=
EXTT16=
EXTT17=
EXTT18=
EXTT19=
EXTT20=
EXTT21=
EXTT22=
EXTT23=
EXTT24=
EXTT25=
EXTT26=
EXTT27=
EXTT28=
PLAYORDER=
